<svg width="104" height="40" viewBox="0 0 104 40" xmlns="http://www.w3.org/2000/svg"><title>30AA5ADA-1CDD-4602-9544-EABA8E27D276</title><g fill="none" fill-rule="evenodd"><path d="M2.239 22.44l8.493 5.568c.302.257.458.822.199 1.223-.217.336-.52.448-.786.448a.904.904 0 0 1-.425-.103L.612 23.687c-.7-.478-.8-1.224-.299-2.218L10.951.515a.934.934 0 0 1 .526-.466.85.85 0 0 1 .68.048c.27.142.449.342.515.578.06.215.029.455-.091.693L2.158 22.036a.371.371 0 0 0-.035.24.233.233 0 0 0 .116.164zm21.151-6.102c.7.48.798 1.227.294 2.22L13.002 39.486a.92.92 0 0 1-.813.513.84.84 0 0 1-.394-.098c-.52-.273-.68-.76-.421-1.272L21.84 17.986c.08-.158.044-.34-.08-.404l-8.482-5.587c-.301-.257-.456-.823-.196-1.224a.917.917 0 0 1 1.212-.342l9.095 5.91z" fill="#BC0000"/><path d="M93.956 20.06c.882-1.918 2.083-2.71 4.411-2.71 2.819 0 4.633 1.707 4.633 4.442l.012 8.177h-.98l-.012-7.71c0-2.29-.785-4.068-3.653-4.068-1.736 0-3.046 1.363-3.552 2.128-.505.766-.835 1.567-.835 3.133v6.517H93V17.677h.956v2.383zm-2.551 9.495c-.319.117-.569.14-.932.14-1.023 0-1.342-.467-1.342-2.01V27.1c-.977 1.964-2.319 2.877-4.547 2.877-2.41 0-3.842-1.24-3.842-3.344 0-2.713 2.228-3.484 4.456-3.671 3.047-.258 3.388-.305 3.706-.819.136-.21.16-.701.16-1.24 0-1.8-1.16-2.759-3.297-2.759-2.16 0-3.343 1.1-3.524 3.204h-.864c.159-2.596 1.75-3.998 4.478-3.998 1.5 0 2.729.444 3.456 1.286.682.795.66 1.776.66 2.782v6.197c0 .701 0 1.286.84 1.286.205 0 .319-.023.592-.094v.748zm-3.115-6.243c-1.705.538-3.546.257-5.206 1.029-.864.398-1.364 1.192-1.364 2.198 0 1.614 1.16 2.619 3.024 2.619 2.5 0 4.342-1.777 4.342-4.186v-2.104c-.273.257-.387.327-.796.444zM77.96 19h-2.98v7.84c0 1.261.044 2.28 1.635 2.28.227 0 .523-.024.955-.096v.88c-.5.072-.705.096-1.091.096-2.456 0-2.459-1.048-2.459-3v-8H72v-1h2.02v-4h.96v4h2.98v1zm-6.71 4.819c0 3.782-2.072 6.181-5.28 6.181-3.23 0-5.303-2.445-5.303-6.25 0-3.76 2.117-6.25 5.325-6.25 3.186 0 5.258 2.468 5.258 6.319zm-9.67-.069c0 3.32 1.716 5.443 4.412 5.443 2.63 0 4.322-2.122 4.322-5.374 0-3.344-1.715-5.512-4.344-5.512-2.63 0-4.39 2.191-4.39 5.443zm-5.757 5.899h-1.114l-3.797-13.141c-.25-.842-.5-1.707-.682-2.572-.204.888-.454 1.753-.704 2.618L45.82 29.65h-1.114L40 13h1.046l3.57 12.767c.25.912.499 1.871.681 2.806.159-.935.432-1.847.682-2.759L49.639 13h1.205l3.751 12.931c.25.865.478 1.754.682 2.642.16-.888.387-1.777.637-2.642L59.484 13h.977l-4.638 16.649z" fill="#000"/></g></svg>