<svg width="16px" height="16px" viewBox="0 0 16 16" version="1.1" xmlns="http://www.w3.org/2000/svg" xmlns:xlink="http://www.w3.org/1999/xlink">
    <!-- Generator: sketchtool 47.1 (45422) - http://www.bohemiancoding.com/sketch -->
    <title>5F5412BA-B161-4B3A-8AB2-627FED08D5D0</title>
    <desc>Created with sketchtool.</desc>
    <defs></defs>
    <g stroke="none" stroke-width="1" fill="none" fill-rule="evenodd">
        <g transform="translate(-326.000000, -3050.000000)">
            <g transform="translate(-26.000000, 2840.000000)">
                <g transform="translate(98.000000, 168.000000)">
                    <g transform="translate(0.000000, 40.000000)">
                        <g transform="translate(252.000000, 0.000000)">
                            <rect x="0" y="0" width="20" height="20"></rect>
                            <path d="M4,2 L16,2 C17.1045695,2 18,2.8954305 18,4 L18,16 C18,17.1045695 17.1045695,18 16,18 L4,18 C2.8954305,18 2,17.1045695 2,16 L2,4 C2,2.8954305 2.8954305,2 4,2 Z M4.85714286,4 C4.38375593,4 4,4.38375593 4,4.85714286 L4,15.1428571 C4,15.6162441 4.38375593,16 4.85714286,16 L15.1428571,16 C15.6162441,16 16,15.6162441 16,15.1428571 L16,4.85714286 C16,4.38375593 15.6162441,4 15.1428571,4 L4.85714286,4 Z" fill="#000000"></path>
                            <path d="M5.62469505,10.2191312 C5.19343311,9.87412164 4.56414074,9.94404302 4.21913119,10.375305 C3.87412164,10.8065669 3.94404302,11.4358593 4.37530495,11.7808688 L9.37530495,15.7808688 C9.87244055,16.1785773 10.6097112,16.0166455 10.8944272,15.4472136 L15.8944272,5.4472136 C16.1414164,4.9532351 15.9411921,4.35256206 15.4472136,4.10557281 C14.9532351,3.85858356 14.3525621,4.05880791 14.1055728,4.5527864 L9.65877031,13.4463914 L5.62469505,10.2191312 Z" fill="#000000" fill-rule="nonzero"></path>
                        </g>
                    </g>
                </g>
            </g>
        </g>
    </g>
</svg>