<svg width="22px" height="22px" viewBox="0 0 22 22" version="1.1" xmlns="http://www.w3.org/2000/svg" xmlns:xlink="http://www.w3.org/1999/xlink">
    <!-- Generator: sketchtool 47.1 (45422) - http://www.bohemiancoding.com/sketch -->
    <title>021F0745-DA88-42D1-8F15-19912028852B</title>
    <desc>Created with sketchtool.</desc>
    <defs></defs>
    <g stroke="none" stroke-width="1" fill="none" fill-rule="evenodd" opacity="0.55">
        <g transform="translate(-393.000000, -2961.000000)">
            <g transform="translate(-26.000000, 2840.000000)">
                <g transform="translate(98.000000, 80.000000)">
                    <g transform="translate(0.000000, 40.000000)">
                        <g transform="translate(320.000000, 0.000000)">
                            <rect x="0" y="0" width="24" height="24"></rect>
                            <path d="M14.1484,21 C14.5064,19.836 15.4704,19 16.6004,19 L18.3994,19 C19.5294,19 20.4934,19.836 20.8514,21 L14.1484,21 Z M17.5004,9 C18.3274,9 19.0004,9.673 19.0004,10.5 C19.0004,11.327 18.3274,12 17.5004,12 C16.6724,12 16.0004,11.327 16.0004,10.5 C16.0004,9.673 16.6724,9 17.5004,9 L17.5004,9 Z M17.5004,14 C17.6714,14 17.8354,13.973 18.0004,13.949 L18.0004,17 L17.0004,17 L17.0004,13.949 C17.1644,13.973 17.3284,14 17.5004,14 L17.5004,14 Z M3.1714,21 C3.5844,19.836 4.6964,19 6.0004,19 L8.0004,19 C9.3034,19 10.4164,19.836 10.8284,21 L3.1714,21 Z M6.0004,17 L8.0004,17 L8.0004,12 L6.0004,12 L6.0004,17 Z M6.0004,10 L8.0004,10 L8.0004,9 L6.0004,9 L6.0004,10 Z M9.7194,5 L9.2194,7 L4.7804,7 L4.2804,5 L9.7194,5 Z M20.0004,17.33 L20.0004,12.942 C20.6164,12.31 21.0004,11.45 21.0004,10.5 C21.0004,8.57 19.4294,7 17.5004,7 C15.5704,7 14.0004,8.57 14.0004,10.5 C14.0004,11.45 14.3834,12.31 15.0004,12.942 L15.0004,17.33 C13.8924,17.78 12.9944,18.676 12.4794,19.822 C11.9594,18.758 11.0864,17.901 10.0004,17.424 L10.0004,12 L11.0004,12 L11.0004,10 L10.0004,10 L10.0004,9 C10.4594,9 10.8584,8.687 10.9704,8.243 L11.9704,4.243 C12.0444,3.944 11.9774,3.627 11.7884,3.385 C11.5984,3.142 11.3084,3 11.0004,3 L8.0004,3 L8.0004,1 L6.0004,1 L6.0004,3 L3.0004,3 C2.6914,3 2.4014,3.142 2.2114,3.385 C2.0224,3.627 1.9554,3.944 2.0294,4.243 L3.0294,8.243 C3.1414,8.687 3.5414,9 4.0004,9 L4.0004,10 L3.0004,10 L3.0004,12 L4.0004,12 L4.0004,17.424 C2.2374,18.198 1.0004,19.955 1.0004,22 C1.0004,22.552 1.4474,23 2.0004,23 L22.0004,23 C22.5524,23 23.0004,22.552 23.0004,22 C23.0004,19.857 21.7464,18.04 20.0004,17.33 L20.0004,17.33 Z" id="Fill-1" fill="#630001"></path>
                            <path d="M19.4998,9 C20.3644079,9 21.0661186,9.672 21.0661186,10.5 C21.0661186,11.328 20.3644079,12 19.4998,12 C18.6351921,12 17.9334814,11.328 17.9334814,10.5 C17.9334814,9.672 18.6351921,9 19.4998,9 Z M23,21 L15.9996,21 C16.373428,19.836 17.3800488,19 18.5600088,19 L18.9776938,19 L20.0219062,19 L20.4395912,19 C21.6195512,19 22.626172,19.836 23,21 Z" fill="#630001" opacity="0.2"></path>
                            <path d="M10.0446592,19 C11.4068948,19 12.5685558,19.836 13,21 L5,21 C5.43144424,19.836 6.59310525,19 7.95534082,19 L10.0446592,19 Z M6.68190128,7 L6.15957169,5 L11.8404283,5 L11.3180987,7 L10.0446592,7 L7.95534082,7 L6.68190128,7 Z" fill="#630001" opacity="0.2"></path>
                        </g>
                    </g>
                </g>
            </g>
        </g>
    </g>
</svg>