<svg width="20px" height="20px" viewBox="0 0 20 20" version="1.1" xmlns="http://www.w3.org/2000/svg" xmlns:xlink="http://www.w3.org/1999/xlink">
    <!-- Generator: sketchtool 47.1 (45422) - http://www.bohemiancoding.com/sketch -->
    <title>2CBF8B70-8AAE-4F21-9D6C-31C387D048D4</title>
    <desc>Created with sketchtool.</desc>
    <defs></defs>
    <g stroke="none" stroke-width="1" fill="none" fill-rule="evenodd">
        <g transform="translate(-554.000000, -2962.000000)">
            <g transform="translate(-26.000000, 2840.000000)">
                <g transform="translate(98.000000, 80.000000)">
                    <g transform="translate(0.000000, 40.000000)">
                        <g transform="translate(480.000000, 0.000000)">
                            <polygon points="0 0 24 0 24 24 0 24"></polygon>
                            <path d="M18.2079565,14.3963701 C16.8589822,15.7453444 14.6826629,15.8739434 13.2050896,14.3963701 L9.6045411,10.7958216 C8.03086084,9.22214131 8.10700901,7.28868602 9.60364073,5.7920543 C9.71364979,5.68204525 9.71364979,5.50275691 9.60364073,5.39274785 C9.71004624,5.49915336 8.07578282,3.87164817 7.79433131,3.58333193 C7.24373673,3.01899158 7.19162049,2.98190434 7.15578303,2.98190434 C6.64680478,2.98190434 4.97337892,4.99246628 4.98194729,6.487368 C4.99728177,9.30380107 6.5250493,12.1163916 9.20433428,14.7956766 C11.8794668,17.4708091 14.6911612,19.0020458 17.5122975,19.0180667 C18.9354454,19.0266125 21.0181065,17.3244588 21.0181065,16.8469289 C21.0181065,16.8147904 20.9858291,16.7600274 20.7951578,16.5712457 C20.7432391,16.5198415 20.528414,16.3152666 20.4868191,16.274789 C20.4475135,16.2364008 20.4475135,16.2364008 20.4070871,16.1961942 L18.607263,14.3963701 C18.3883101,14.1774172 18.4269094,14.1774172 18.2079565,14.3963701 Z" fill="#630001" opacity="0.195652174"></path>
                            <path d="M20.8085051,15.7947762 C20.8381329,15.8242451 20.8381329,15.8242451 20.8690299,15.8544236 C20.8975182,15.8821466 21.1209703,16.0949369 21.1895799,16.1628666 C21.7207429,16.6887658 22.0000108,17.1625811 22.0000108,17.8469289 C22.0000108,19.5188378 18.9463065,22.0146226 16.5007198,21.9999372 C13.0696238,21.9804524 9.8124089,20.2065872 6.80291628,17.1970946 C3.78905723,14.1832355 2.0187253,10.9240886 2.00007391,7.4984431 C1.98561146,4.97522874 4.46194637,2 6.15578303,2 C6.93948583,2 7.27754745,2.24057319 8.21272509,3.19909791 C8.48254442,3.4754982 10.0985336,5.08480476 10.0050587,4.99132985 C10.8890496,5.87532069 10.8890496,7.30948146 10.0050587,8.1934723 C9.25881707,8.93971397 9.23200658,9.62045105 10.0059591,10.3944036 L13.6065076,13.9949521 C14.2707402,14.6591847 15.1970412,14.6044494 15.8065385,13.9949521 C16.7994732,13.0020174 18.0157463,13.0020174 19.008681,13.9949521 L20.8085051,15.7947762 Z M17.2079565,15.3963701 C15.8589822,16.7453444 13.6826629,16.8739434 12.2050896,15.3963701 L8.6045411,11.7958216 C7.03086084,10.2221413 7.10700901,8.28868602 8.60364073,6.7920543 C8.71364979,6.68204525 8.71364979,6.50275691 8.60364073,6.39274785 C8.71004624,6.49915336 7.07578282,4.87164817 6.79433131,4.58333193 C6.24373673,4.01899158 6.19162049,3.98190434 6.15578303,3.98190434 C5.64680478,3.98190434 3.97337892,5.99246628 3.98194729,7.487368 C3.99728177,10.3038011 5.5250493,13.1163916 8.20433428,15.7956766 C10.8794668,18.4708091 13.6911612,20.0020458 16.5122975,20.0180667 C17.9354454,20.0266125 20.0181065,18.3244588 20.0181065,17.8469289 C20.0181065,17.8147904 19.9858291,17.7600274 19.7951578,17.5712457 C19.7432391,17.5198415 19.528414,17.3152666 19.4868191,17.274789 C19.4475135,17.2364008 19.4475135,17.2364008 19.4070871,17.1961942 L17.607263,15.3963701 C17.3883101,15.1774172 17.4269094,15.1774172 17.2079565,15.3963701 Z" id="Page-1" fill="#AA7374" fill-rule="nonzero"></path>
                        </g>
                    </g>
                </g>
            </g>
        </g>
    </g>
</svg>