<svg width="22px" height="16px" viewBox="0 0 22 16" version="1.1" xmlns="http://www.w3.org/2000/svg" xmlns:xlink="http://www.w3.org/1999/xlink">
    <!-- Generator: sketchtool 47.1 (45422) - http://www.bohemiancoding.com/sketch -->
    <title>72FD1222-CE51-4EAE-916D-8F062D00FAC2</title>
    <desc>Created with sketchtool.</desc>
    <defs></defs>
    <g stroke="none" stroke-width="1" fill="none" fill-rule="evenodd" opacity="0.55">
        <g transform="translate(-193.000000, -2964.000000)">
            <g transform="translate(-26.000000, 2840.000000)">
                <g transform="translate(98.000000, 80.000000)">
                    <g transform="translate(0.000000, 40.000000)">
                        <g transform="translate(120.000000, 0.000000)">
                            <rect x="0" y="0" width="24" height="24"></rect>
                            <path d="M19.2108987,13.1119421 C18.7229282,10.7344528 16.5505561,9 14,9 C11.9987584,9 10.1942671,10.0745397 9.28474789,11.7515199 L9.08201183,12.1253266 L8.64558627,12.1698828 C6.58190578,12.3805713 5,14.0616911 5,16.0714286 C5,18.2382048 6.83459661,20 9.09090909,20 L19.7272727,20 C21.5335852,20 23,18.5917763 23,16.8571429 C23,15.2103875 21.7137155,14.1139338 20,14 L19.2108987,14 L19.2108987,13.1119421 Z" fill="#630001" opacity="0.195652174"></path>
                            <path d="M23,14 C23,16.7602373 20.7257794,19 17.9230769,19 L6.92307692,19 C3.65498983,19 1,16.3852373 1,13.1666667 C1,10.3307942 3.06669936,7.93621762 5.8390239,7.43470487 C7.1244372,5.32941371 9.44365997,4 12,4 C15.2412086,4 18.0313169,6.12384423 18.9047786,9.11630338 C21.2514526,9.56559758 23,11.584308 23,14 Z M17.2108987,10.1119421 C16.7229282,7.7344528 14.5505561,6 12,6 C9.9987584,6 8.19426708,7.07453975 7.28474789,8.7515199 L7.08201183,9.12532658 L6.64558627,9.16988281 C4.58190578,9.38057128 3,11.0616911 3,13.0714286 C3,15.2382048 4.83459661,17 7.09090909,17 L17.7272727,17 C19.5335852,17 21,15.5917763 21,13.8571429 C21,12.2103875 19.7137155,11.1139338 18,11 L17.2108987,11 L17.2108987,10.1119421 Z M11,12 L11,8 L13,8 L13,12 L15,12 L12,16 L9,12 L11,12 Z" fill="#630001" fill-rule="nonzero"></path>
                        </g>
                    </g>
                </g>
            </g>
        </g>
    </g>
</svg>