<svg width="18px" height="18px" viewBox="0 0 18 18" version="1.1" xmlns="http://www.w3.org/2000/svg" xmlns:xlink="http://www.w3.org/1999/xlink">
    <!-- Generator: sketchtool 47.1 (45422) - http://www.bohemiancoding.com/sketch -->
    <title>47F0D63F-E1C6-481F-B505-B73112F89BB7</title>
    <desc>Created with sketchtool.</desc>
    <defs></defs>
    <g stroke="none" stroke-width="1" fill="none" fill-rule="evenodd" opacity="0.55">
        <g transform="translate(-315.000000, -2963.000000)">
            <g transform="translate(-26.000000, 2840.000000)">
                <g transform="translate(98.000000, 80.000000)">
                    <g transform="translate(0.000000, 40.000000)">
                        <g transform="translate(240.000000, 0.000000)">
                            <polygon points="0 0 24 0 24 24 0 24"></polygon>
                            <path d="M17.4989072,17.4489072 C15.4974501,19.4503643 12.2650499,19.4503643 10.2635928,17.4489072 C8.26213573,15.4474501 8.26213573,12.2150499 10.2635928,10.2135928 C12.2650499,8.21213573 15.4974501,8.21213573 17.4989072,10.2135928 C19.5003643,12.2150499 19.5003643,15.4474501 17.4989072,17.4489072 Z" fill="#630001" opacity="0.2"></path>
                            <path d="M16.5,3 L21,3 L21,7.5 L16.5,3 Z M21,16.5 L21,21 L16.5,21 L21,16.5 Z M7.5,21 L3,21 L3,16.5 L7.5,21 Z M3,7.5 L3,3 L7.5,3 L3,7.5 Z M17.56875,6.43125 C20.64,9.51375 20.64,14.4975 17.56875,17.56875 C14.4975,20.64 9.5025,20.64 6.43125,17.56875 C3.36,14.4975 3.36,9.5025 6.43125,6.43125 C9.5025,3.36 14.4975,3.36 17.56875,6.43125 Z M16.244373,7.75562701 C13.903537,5.414791 10.096463,5.414791 7.75562701,7.75562701 C5.414791,10.096463 5.414791,13.903537 7.75562701,16.244373 C10.096463,18.585209 13.903537,18.585209 16.244373,16.244373 C18.585209,13.903537 18.585209,10.1050375 16.244373,7.75562701 Z" fill="#630001"></path>
                        </g>
                    </g>
                </g>
            </g>
        </g>
    </g>
</svg>