<svg width="22px" height="22px" viewBox="0 0 22 22" version="1.1" xmlns="http://www.w3.org/2000/svg" xmlns:xlink="http://www.w3.org/1999/xlink">
    <!-- Generator: sketchtool 47.1 (45422) - http://www.bohemiancoding.com/sketch -->
    <title>6ACBF886-B8AF-41B5-AA3F-30CD195E028D</title>
    <desc>Created with sketchtool.</desc>
    <defs></defs>
    <g stroke="none" stroke-width="1" fill="none" fill-rule="evenodd">
        <g transform="translate(-73.000000, -2961.000000)">
            <g transform="translate(-26.000000, 2840.000000)">
                <g transform="translate(98.000000, 80.000000)">
                    <g transform="translate(0.000000, 40.000000)">
                        <g>
                            <rect x="0" y="0" width="24" height="24"></rect>
                            <path d="M12,23 C5.92486775,23 1,18.0751322 1,12 C1,5.92486775 5.92486775,1 12,1 C18.0751322,1 23,5.92486775 23,12 C23,18.0751322 18.0751322,23 12,23 Z M12,21.952381 C17.4965482,21.952381 21.952381,17.4965482 21.952381,12 C21.952381,6.50345178 17.4965482,2.04761905 12,2.04761905 C6.50345178,2.04761905 2.04761905,6.50345178 2.04761905,12 C2.04761905,17.4965482 6.50345178,21.952381 12,21.952381 Z M13.5734884,7.57943016 C12.9892937,7.57943016 12.9291561,7.72526367 12.9291561,8.32682688 L12.9291561,9.12891117 L14.7934243,9.12891117 C14.8793353,9.12891117 14.9652462,9.16536955 15.0253839,9.2382863 C15.0855216,9.31120306 15.119886,9.402349 15.1112949,9.50260953 L14.9910195,11.3255284 C14.9738373,11.5078203 14.8363798,11.6536538 14.6645578,11.6536538 L12.9291561,11.6536538 L12.9291561,18.6536621 C12.9291561,18.8450686 12.7831074,19.0000167 12.6112854,19.0000167 L10.463511,19.0000167 C10.2830979,19.0000167 10.1370493,18.8450686 10.1370493,18.6536621 L10.1370493,11.6536538 L9.08893533,11.6536538 C8.90852227,11.6536538 8.76247361,11.4987057 8.76247361,11.2981846 L8.76247361,9.47526575 C8.76247361,9.28385927 8.90852227,9.12891117 9.08893533,9.12891117 L10.1370493,9.12891117 L10.1370493,8.19010797 C10.1370493,6.03906374 11.1336166,5 13.186889,5 C13.8655857,5 14.5185092,5.09114594 15.119886,5.27343783 C15.2831169,5.3190108 15.3776189,5.49218809 15.3604367,5.65625078 L15.1284771,7.43359665 C15.119886,7.52474259 15.0683394,7.61588854 14.9910195,7.6705761 C14.9136997,7.72526367 14.8191976,7.74349285 14.7332866,7.72526367 C14.3638694,7.64323232 13.9085412,7.57943016 13.5734884,7.57943016 Z" fill="#000000"></path>
                        </g>
                    </g>
                </g>
            </g>
        </g>
    </g>
</svg>