<svg width="20px" height="19px" viewBox="0 0 20 19" version="1.1" xmlns="http://www.w3.org/2000/svg" xmlns:xlink="http://www.w3.org/1999/xlink">
    <!-- Generator: sketchtool 47.1 (45422) - http://www.bohemiancoding.com/sketch -->
    <title>E1F5E0DC-E524-45F4-8234-83A8FD4E636C</title>
    <desc>Created with sketchtool.</desc>
    <defs></defs>
    <g stroke="none" stroke-width="1" fill="none" fill-rule="evenodd" opacity="0.55">
        <g transform="translate(-234.000000, -2963.000000)">
            <g transform="translate(-26.000000, 2840.000000)">
                <g transform="translate(98.000000, 80.000000)">
                    <g transform="translate(0.000000, 40.000000)">
                        <g transform="translate(160.000000, 0.000000)">
                            <polygon points="0 0 24 0 24 24 0 24"></polygon>
                            <path d="M17.9986376,8 C16.732752,8 15.5177929,8.58929155 14.7247956,9.52051771 C13.9317984,8.58929155 12.7168392,8 11.4509537,8 C9.21019074,8 7.44959128,9.76059946 7.44959128,12.0013624 C7.44959128,14.7513896 9.92316076,16.9921526 13.669891,20.3969482 L14.7247956,21.35 L15.7797003,20.389673 C19.5264305,16.9921526 22,14.7513896 22,12.0013624 C22,9.76059946 20.2394005,8 17.9986376,8 Z" fill="#630001" opacity="0.195652174"></path>
                            <path d="M16.5,3 C14.76,3 13.09,3.81 12,5.09 C10.91,3.81 9.24,3 7.5,3 C4.42,3 2,5.42 2,8.5 C2,12.28 5.4,15.36 10.55,20.04 L12,21.35 L13.45,20.03 C18.6,15.36 22,12.28 22,8.5 C22,5.42 19.58,3 16.5,3 Z M12.1,18.55 L12,18.65 L11.9,18.55 C7.14,14.24 4,11.39 4,8.5 C4,6.5 5.5,5 7.5,5 C9.04,5 10.54,5.99 11.07,7.36 L12.94,7.36 C13.46,5.99 14.96,5 16.5,5 C18.5,5 20,6.5 20,8.5 C20,11.39 16.86,14.24 12.1,18.55 Z" fill="#630001" fill-rule="nonzero"></path>
                        </g>
                    </g>
                </g>
            </g>
        </g>
    </g>
</svg>