<svg width="22px" height="20px" viewBox="0 0 22 20" version="1.1" xmlns="http://www.w3.org/2000/svg" xmlns:xlink="http://www.w3.org/1999/xlink">
    <!-- Generator: sketchtool 47.1 (45422) - http://www.bohemiancoding.com/sketch -->
    <title>892BBED9-8BF6-4DF6-A0D5-32E2A5F26948</title>
    <desc>Created with sketchtool.</desc>
    <defs></defs>
    <g stroke="none" stroke-width="1" fill="none" fill-rule="evenodd" opacity="0.55">
        <g transform="translate(-473.000000, -2962.000000)">
            <g transform="translate(-26.000000, 2840.000000)">
                <g transform="translate(98.000000, 80.000000)">
                    <g transform="translate(0.000000, 40.000000)">
                        <g transform="translate(400.000000, 0.000000)">
                            <polygon points="0 0 24 0 24 24 0 24"></polygon>
                            <path d="M16.6455341,16.5955341 C14.8395795,18.4014886 11.9229205,18.4014886 10.1169659,16.5955341 C8.31101136,14.7895795 8.31101136,11.8729205 10.1169659,10.0669659 C11.9229205,8.26101136 14.8395795,8.26101136 16.6455341,10.0669659 C18.4514886,11.8729205 18.4514886,14.7895795 16.6455341,16.5955341 Z" fill="#630001" opacity="0.2"></path>
                            <path d="M23,6 L19,6 L19,2 L23,6 Z M19,22 L19,18 L23,18 L19,22 Z M1,18 L5,18 L5,22 L1,18 Z M5,2 L5,6 L1,6 L5,2 Z M17.56875,6.43125 C20.64,9.51375 20.64,14.4975 17.56875,17.56875 C14.4975,20.64 9.5025,20.64 6.43125,17.56875 C3.36,14.4975 3.36,9.5025 6.43125,6.43125 C9.5025,3.36 14.4975,3.36 17.56875,6.43125 Z M16.244373,7.75562701 C13.903537,5.414791 10.096463,5.414791 7.75562701,7.75562701 C5.414791,10.096463 5.414791,13.903537 7.75562701,16.244373 C10.096463,18.585209 13.903537,18.585209 16.244373,16.244373 C18.585209,13.903537 18.585209,10.1050375 16.244373,7.75562701 Z" fill="#630001"></path>
                        </g>
                    </g>
                </g>
            </g>
        </g>
    </g>
</svg>