<svg width="18px" height="18px" viewBox="0 0 18 18" version="1.1" xmlns="http://www.w3.org/2000/svg" xmlns:xlink="http://www.w3.org/1999/xlink">
    <!-- Generator: sketchtool 47.1 (45422) - http://www.bohemiancoding.com/sketch -->
    <title>6BDCE05B-AC57-4272-90EF-D256D5EC9298</title>
    <desc>Created with sketchtool.</desc>
    <defs></defs>
    <g stroke="none" stroke-width="1" fill="none" fill-rule="evenodd">
        <g transform="translate(-361.000000, -3049.000000)">
            <g transform="translate(-26.000000, 2840.000000)">
                <g transform="translate(98.000000, 168.000000)">
                    <g transform="translate(0.000000, 40.000000)">
                        <g transform="translate(288.000000, 0.000000)">
                            <rect x="0" y="0" width="20" height="20"></rect>
                            <path d="M10,19 C5.02943725,19 1,14.9705627 1,10 C1,5.02943725 5.02943725,1 10,1 C14.9705627,1 19,5.02943725 19,10 C19,14.9705627 14.9705627,19 10,19 Z M10,17 C13.8659932,17 17,13.8659932 17,10 C17,6.13400675 13.8659932,3 10,3 C6.13400675,3 3,6.13400675 3,10 C3,13.8659932 6.13400675,17 10,17 Z M9,8 L11,8 L11,15 L9,15 L9,8 Z M9,5 L11,5 L11,7 L9,7 L9,5 Z" fill="#000000"></path>
                        </g>
                    </g>
                </g>
            </g>
        </g>
    </g>
</svg>