<svg width="17px" height="17px" viewBox="0 0 17 17" version="1.1" xmlns="http://www.w3.org/2000/svg" xmlns:xlink="http://www.w3.org/1999/xlink">
    <!-- Generator: sketchtool 47.1 (45422) - http://www.bohemiancoding.com/sketch -->
    <title>38D00053-9AC7-4C80-9C48-4A96EE9ED4A3</title>
    <desc>Created with sketchtool.</desc>
    <defs></defs>
    <g stroke="none" stroke-width="1" fill="none" fill-rule="evenodd">
        <g transform="translate(-182.000000, -3050.000000)">
            <g transform="translate(-26.000000, 2840.000000)">
                <g transform="translate(98.000000, 168.000000)">
                    <g transform="translate(0.000000, 40.000000)">
                        <g transform="translate(108.000000, 0.000000)">
                            <rect x="0" y="0" width="20" height="20"></rect>
                            <circle fill="#630001" opacity="0.115998641" cx="12.5" cy="12.5" r="6.5"></circle>
                            <path d="M2.60738243,13.0624355 L4.45484832,12.2963612 C4.75654407,13.0239311 5.2000517,13.6853331 5.75735931,14.2426407 C6.87596444,15.3612458 8.38614896,16 10,16 C13.3137085,16 16,13.3137085 16,10 C16,6.6862915 13.3137085,4 10,4 C8.38614896,4 6.87596444,4.63875419 5.75735931,5.75735931 C5.2000517,6.31466693 4.75654407,6.97606885 4.45484832,7.7036388 L2.60738243,6.93756453 C3.0099622,5.96670254 3.6009953,5.0852962 4.34314575,4.34314575 C5.83310545,2.85318606 7.85026384,2 10,2 C14.418278,2 18,5.581722 18,10 C18,14.418278 14.418278,18 10,18 C7.85026384,18 5.83310545,17.1468139 4.34314575,15.6568542 C3.6009953,14.9147038 3.0099622,14.0332975 2.60738243,13.0624355 Z M9,11 L2,11 L2,9 L9,9 L9,7 L13,10 L9,13 L9,11 Z" fill="#630001" fill-rule="nonzero" opacity="0.567538496"></path>
                        </g>
                    </g>
                </g>
            </g>
        </g>
    </g>
</svg>