<svg width="104px" height="40px" viewBox="0 0 104 40" version="1.1" xmlns="http://www.w3.org/2000/svg" xmlns:xlink="http://www.w3.org/1999/xlink">
    <!-- Generator: sketchtool 47.1 (45422) - http://www.bohemiancoding.com/sketch -->
    <title>30AA5ADA-1CDD-4602-9544-EABA8E27D276</title>
    <desc>Created with sketchtool.</desc>
    <defs></defs>
    <g stroke="none" stroke-width="1" fill="none" fill-rule="evenodd">
        <g transform="translate(-72.000000, -3308.000000)">
            <g transform="translate(-26.000000, 2840.000000)">
                <g transform="translate(98.000000, 428.000000)">
                    <g transform="translate(0.000000, 40.000000)">
                        <g>
                            <path d="M2.2385675,22.4401055 L10.7321015,28.0077085 C11.0342521,28.2648068 11.1901144,28.830111 10.9308546,29.2311688 C10.7141027,29.5666841 10.4111862,29.6786526 10.1450332,29.6786526 C9.97921422,29.6786526 9.82794744,29.6353477 9.71995444,29.5760473 L0.611779436,23.6869739 C-0.0874943435,23.2090597 -0.187828259,22.4627332 0.313458366,21.4686717 L10.9507682,0.515352147 C11.0625907,0.293756007 11.2494722,0.127949036 11.4769468,0.0487518241 C11.7051873,-0.0300552539 11.9460653,-0.0128893557 12.156307,0.0971284462 C12.4274384,0.238747106 12.6058949,0.438885873 12.6721459,0.674916973 C12.7326526,0.890270969 12.7008674,1.12981327 12.5806199,1.36818518 L2.15814719,22.0359266 C2.11908589,22.1135633 2.10644842,22.1990026 2.12253248,22.2762492 C2.13823359,22.3507648 2.17959261,22.4092849 2.2385675,22.4401055 Z M23.3902207,16.3383699 C24.0891115,16.8178447 24.1875307,17.5645612 23.6839463,18.5574524 L13.0018309,39.4869737 C12.8367778,39.8115653 12.5158624,40 12.1888198,40 C12.0551689,40 11.9207521,39.9687893 11.7951432,39.9024665 C11.2758577,39.6293727 11.1142512,39.1417051 11.3738939,38.6302394 L21.8407893,17.985906 C21.9204437,17.8282918 21.884829,17.6468795 21.7611349,17.5817271 L13.2794724,11.9950075 C12.9777048,11.7379092 12.8229914,11.1718247 13.0830171,10.771157 C13.4357176,10.2280904 14.013595,10.273346 14.2950661,10.4293996 L23.3902207,16.3383699 Z" fill="#BC0000"></path>
                            <path d="M93.9556954,20.0595238 C94.8380361,18.1421827 96.038803,17.3496047 98.3673988,17.3496047 C101.185721,17.3496047 103,19.0566029 103,21.7922534 L103.011536,29.96875 L102.03125,29.96875 L102.019714,22.2598587 C102.019714,19.9683538 101.235319,18.1913739 98.3673988,18.1913739 C96.6309524,18.1913739 95.3214286,19.5535714 94.8154762,20.3190579 C94.3095238,21.0845443 93.9802859,21.8856949 93.9802859,23.4523319 L93.9802859,29.96875 L93,29.96875 L93,17.6768489 L93.9556954,17.6768489 L93.9556954,20.0595238 Z M91.4046468,29.5554568 C91.0864808,29.6723581 90.8363552,29.6958179 90.4725712,29.6958179 C89.4496463,29.6958179 89.1314803,29.2282126 89.1314803,27.6846377 L89.1314803,27.100131 C88.1537867,29.0643916 86.8123091,29.9765402 84.5843739,29.9765402 C82.1743534,29.9765402 80.7420265,28.7371474 80.7420265,26.6325256 C80.7420265,23.9203349 82.9703483,23.1485475 85.1982835,22.9616644 C88.244636,22.7044019 88.585611,22.6574823 88.903777,22.1429574 C89.0402443,21.9326145 89.0630533,21.4415493 89.0630533,20.9035646 C89.0630533,19.1031249 87.903661,18.1444543 85.7665752,18.1444543 C83.6066803,18.1444543 82.4244791,19.243486 82.2427804,21.3481078 L81.3787451,21.3481078 C81.5380214,18.7524208 83.129238,17.3496047 85.8574245,17.3496047 C87.3577918,17.3496047 88.585611,17.7937503 89.313179,18.6355195 C89.9951289,19.4307667 89.9723199,20.4124994 89.9723199,21.4180895 L89.9723199,27.6146559 C89.9723199,28.316064 89.9723199,28.9009683 90.8135462,28.9009683 C91.0180539,28.9009683 91.1317122,28.8775085 91.4046468,28.8071292 L91.4046468,29.5554568 Z M88.2898674,23.3119708 C86.5849925,23.8499556 84.7436502,23.5692333 83.0840066,24.3410207 C82.2199714,24.7386443 81.7197201,25.5334939 81.7197201,26.5390841 C81.7197201,28.1526407 82.8791124,29.1578332 84.7436502,29.1578332 C87.2441335,29.1578332 89.0858623,27.3808533 89.0858623,24.972447 L89.0858623,22.8678252 C88.8129277,23.1250877 88.6992693,23.1950695 88.2898674,23.3119708 Z M77.96,19 L74.98,19 L74.98,26.84 C74.98,28.1014035 75.0235435,29.1194052 76.6151467,29.1194052 C76.8424634,29.1194052 77.1378204,29.0955288 77.5700313,29.0238995 L77.5700313,29.904899 C77.06978,29.9761236 76.8652724,30 76.4786794,30 C74.0234275,30 74.02,28.9517962 74.02,27 L74.02,19 L72,19 L72,18 L74.02,18 L74.02,14 L74.98,14 L74.98,18 L77.96,18 L77.96,19 Z M71.25,23.8190218 C71.25,27.6011012 69.1780802,30 65.9699952,30 C62.7391793,30 60.6672594,27.5552174 60.6672594,23.75 C60.6672594,19.9906664 62.7838833,17.5 65.9919683,17.5 C69.1780802,17.5 71.25,19.9675284 71.25,23.8190218 Z M61.580662,23.75 C61.580662,27.0708885 63.2960858,29.1925237 65.9919683,29.1925237 C68.6211736,29.1925237 70.3142454,27.0708885 70.3142454,23.8190218 C70.3142454,20.4749953 68.5988216,18.3070841 65.9699952,18.3070841 C63.3407899,18.3070841 61.580662,20.4981333 61.580662,23.75 Z M55.8228631,29.6488983 L54.7090888,29.6488983 L50.9123594,16.5078355 C50.6622337,15.6656687 50.4121081,14.8008373 50.2304094,13.9356084 C50.0259017,14.8242971 49.7757761,15.6891285 49.5256504,16.5543575 L45.8197704,29.6488983 L44.7059961,29.6488983 L40,13 L41.0457339,13 L44.6151467,25.7672966 C44.8652724,26.6794452 45.1150114,27.6381157 45.2970967,28.5733265 C45.4559864,27.6381157 45.728921,26.7259672 45.9790467,25.8142162 L49.6393088,13 L50.844319,13 L54.5954305,25.9311176 C54.8455561,26.7963465 55.0728728,27.6846377 55.2773804,28.5733265 C55.4366567,27.6846377 55.6639734,26.7963465 55.914099,25.9311176 L59.4835118,13 L60.4608188,13 L55.8228631,29.6488983 Z" fill="#000000"></path>
                        </g>
                    </g>
                </g>
            </g>
        </g>
    </g>
</svg>