<svg width="30px" height="30px" viewBox="0 0 30 30" version="1.1" xmlns="http://www.w3.org/2000/svg" xmlns:xlink="http://www.w3.org/1999/xlink">
    <!-- Generator: sketchtool 47.1 (45422) - http://www.bohemiancoding.com/sketch -->
    <title>70EAEB70-3370-49BE-BB6A-AC46496A0AFF</title>
    <desc>Created with sketchtool.</desc>
    <defs></defs>
    <g stroke="none" stroke-width="1" fill="none" fill-rule="evenodd">
        <g transform="translate(-170.000000, -3213.000000)">
            <g transform="translate(-26.000000, 2840.000000)">
                <g transform="translate(98.000000, 332.000000)">
                    <g transform="translate(1.000000, 40.000000)">
                        <g transform="translate(96.000000, 0.000000)">
                            <rect x="0" y="0" width="32" height="32"></rect>
                            <path d="M16,31 C7.71572875,31 1,24.2842712 1,16 C1,7.71572875 7.71572875,1 16,1 C24.2842712,1 31,7.71572875 31,16 C31,24.2842712 24.2842712,31 16,31 Z M16,30 C23.7319865,30 30,23.7319865 30,16 C30,8.2680135 23.7319865,2 16,2 C8.2680135,2 2,8.2680135 2,16 C2,23.7319865 8.2680135,30 16,30 Z M22.2222222,20 C22.651777,20 23,20.4477153 23,21 C23,21.5522847 22.651777,22 22.2222222,22 L9.77777778,22 C9.34822297,22 9,21.5522847 9,21 C9,20.4477153 9.34822297,20 9.77777778,20 L22.2222222,20 Z M22.2222222,15 C22.651777,15 23,15.4477153 23,16 C23,16.5522847 22.651777,17 22.2222222,17 L9.77777778,17 C9.34822297,17 9,16.5522847 9,16 C9,15.4477153 9.34822297,15 9.77777778,15 L22.2222222,15 Z M22.2222222,12 L9.77777778,12 C9.34822297,12 9,11.5522847 9,11 C9,10.4477153 9.34822297,10 9.77777778,10 L22.2222222,10 C22.651777,10 23,10.4477153 23,11 C23,11.5522847 22.651777,12 22.2222222,12 Z" fill="#000000"></path>
                        </g>
                    </g>
                </g>
            </g>
        </g>
    </g>
</svg>