<svg width="21px" height="22px" viewBox="0 0 21 22" version="1.1" xmlns="http://www.w3.org/2000/svg" xmlns:xlink="http://www.w3.org/1999/xlink">
    <!-- Generator: sketchtool 47.1 (45422) - http://www.bohemiancoding.com/sketch -->
    <title>E1B38DBE-F7B8-48C2-B902-668304D4A4E4</title>
    <desc>Created with sketchtool.</desc>
    <defs></defs>
    <g stroke="none" stroke-width="1" fill="none" fill-rule="evenodd" opacity="0.55">
        <g transform="translate(-433.000000, -2962.000000)">
            <g transform="translate(-26.000000, 2840.000000)">
                <g transform="translate(98.000000, 80.000000)">
                    <g transform="translate(0.000000, 40.000000)">
                        <g transform="translate(360.000000, 0.000000)">
                            <rect x="0" y="0" width="24" height="24"></rect>
                            <polygon fill="#630001" opacity="0.2" points="21.586 14.586 12.586 23.586 5 16 14 7 21.586 7"></polygon>
                            <path d="M20,1.9999 C21.103,1.9999 22,2.8969 22,3.9999 L22,11.9999 C22,12.2649 21.895,12.5199 21.707,12.7069 L11.707,22.7069 C11.512,22.9019 11.256,22.9999 11,22.9999 C10.744,22.9999 10.488,22.9019 10.293,22.7069 L1.293,13.7069 C0.902,13.3159 0.902,12.6839 1.293,12.2929 L11.293,2.2929 C11.48,2.1059 11.735,1.9999 12,1.9999 L20,1.9999 Z M20,11.5859 L20,3.9999 L12.414,3.9999 L3.414,12.9999 L11,20.5859 L20,11.5859 Z M12.0001,6.586 L15.4141,10 L12.4141,13 L14.4141,15 L13.0001,16.414 L7.5861,11 L8.2931,10.293 L9.0001,9.586 L12.0001,6.586 Z M10.4141,11 L11.0001,11.586 L12.5861,10 L12.0001,9.414 L10.4141,11 Z" fill="#630001"></path>
                        </g>
                    </g>
                </g>
            </g>
        </g>
    </g>
</svg>