<svg width="19px" height="19px" viewBox="0 0 19 19" version="1.1" xmlns="http://www.w3.org/2000/svg" xmlns:xlink="http://www.w3.org/1999/xlink">
    <!-- Generator: sketchtool 47.1 (45422) - http://www.bohemiancoding.com/sketch -->
    <title>87BAAC8E-9886-4727-A1BC-6FB3C41B6428</title>
    <desc>Created with sketchtool.</desc>
    <defs></defs>
    <g stroke="none" stroke-width="1" fill="none" fill-rule="evenodd" opacity="0.55">
        <g transform="translate(-354.000000, -2963.000000)">
            <g transform="translate(-26.000000, 2840.000000)">
                <g transform="translate(98.000000, 80.000000)">
                    <g transform="translate(0.000000, 40.000000)">
                        <g transform="translate(280.000000, 0.000000)">
                            <rect x="0" y="0" width="24" height="24"></rect>
                            <path d="M9.45842289,9.25 C6.4911748,9.62194127 4.188,12.1607793 4.188,15.2266596 C4.188,18.5477789 6.89022111,21.25 10.2113404,21.25 C13.2772207,21.25 15.8160587,18.9468252 16.188,15.9795771 L9.45842289,15.9795771 L9.45842289,9.25 Z" fill="#630001" opacity="0.2"></path>
                            <path d="M21,10 L14,10 L14,3 L15,3 C18.309,3 21,5.719 21,9 L21,10 Z M16,8 L18.874,8 C18.511,6.596 17.404,5.489 16,5.126 L16,8 Z M11,22 C6.0374,22 2,17.9626 2,13 C2,8.0374 6.0374,4 11,4 L11.9,4 L11.9,12.1 L20,12.1 L20,13 C20,17.9626 15.9626,22 11,22 Z M10.1,5.8558 C6.5531,6.3004 3.8,9.3352 3.8,13 C3.8,16.9699 7.0301,20.2 11,20.2 C14.6648,20.2 17.6996,17.4469 18.1442,13.9 L10.1,13.9 L10.1,5.8558 Z" fill="#630001"></path>
                        </g>
                    </g>
                </g>
            </g>
        </g>
    </g>
</svg>