<svg width="18px" height="18px" viewBox="0 0 18 18" version="1.1" xmlns="http://www.w3.org/2000/svg" xmlns:xlink="http://www.w3.org/1999/xlink">
    <!-- Generator: sketchtool 47.1 (45422) - http://www.bohemiancoding.com/sketch -->
    <title>8808EE23-40EA-4510-A34C-84F1D9C10CD7</title>
    <desc>Created with sketchtool.</desc>
    <defs></defs>
    <g stroke="none" stroke-width="1" fill="none" fill-rule="evenodd" opacity="0.55">
        <g transform="translate(-275.000000, -2963.000000)">
            <g transform="translate(-26.000000, 2840.000000)">
                <g transform="translate(98.000000, 80.000000)">
                    <g transform="translate(0.000000, 40.000000)">
                        <g transform="translate(200.000000, 0.000000)">
                            <rect x="0" y="0" width="24" height="24"></rect>
                            <path d="M14,19 C15.360551,19 16.5340087,18.5068077 17.5204082,17.5204082 C18.5068077,16.5340087 19,15.360551 19,14 C19,12.639449 18.5068077,11.4659913 17.5204082,10.4795918 C16.5340087,9.49319235 15.360551,9 14,9 C12.639449,9 11.4659913,9.49319235 10.4795918,10.4795918 C9.49319235,11.4659913 9,12.639449 9,14 C9,15.360551 9.49319235,16.5340087 10.4795918,17.5204082 C11.4659913,18.5068077 12.639449,19 14,19 Z" fill="#630001" opacity="0.2"></path>
                            <path d="M19.265625,12 C19.265625,13.0625053 19.8437442,13.9374966 21,14.625 C20.8437492,15.1250025 20.5937517,15.7187466 20.25,16.40625 C19.1874947,16.1562487 18.2187544,16.4687456 17.34375,17.34375 C16.5624961,18.1250039 16.3124986,19.0937442 16.59375,20.25 C15.9062466,20.5937517 15.3125025,20.8437492 14.8125,21 C14.1249966,19.8437442 13.1875059,19.265625 12,19.265625 C10.8124941,19.265625 9.87500344,19.8437442 9.1875,21 C8.62499719,20.8124991 8.01562828,20.5625016 7.359375,20.25 C7.64062641,19.0624941 7.40625375,18.0937537 6.65625,17.34375 C5.90624625,16.5937463 4.93750594,16.3593736 3.75,16.640625 C3.43749844,15.9843717 3.18750094,15.3750028 3,14.8125 C4.15625578,14.1249966 4.734375,13.1875059 4.734375,12 C4.734375,10.9374947 4.15625578,10.0625034 3,9.375 C3.21875109,8.68749656 3.46874859,8.0937525 3.75,7.59375 C4.81250531,7.84375125 5.78124563,7.53125437 6.65625,6.65625 C7.40625375,5.90624625 7.64062641,4.93750594 7.359375,3.75 C8.01562828,3.43749844 8.62499719,3.18750094 9.1875,3 C9.87500344,4.15625578 10.8124941,4.734375 12,4.734375 C13.1875059,4.734375 14.1249966,4.15625578 14.8125,3 C15.3750028,3.18750094 15.9843717,3.43749844 16.640625,3.75 C16.3593736,4.93750594 16.5937463,5.90624625 17.34375,6.65625 C18.2187544,7.53125437 19.1874947,7.84375125 20.25,7.59375 C20.5937517,8.28125344 20.8437492,8.8749975 21,9.375 C19.8437442,10.0625034 19.265625,10.9374947 19.265625,12 Z M12,17.4 C13.4693951,17.4 14.7367294,16.8673523 15.8020408,15.8020408 C16.8673523,14.7367294 17.4,13.4693951 17.4,12 C17.4,10.5306049 16.8673523,9.26327063 15.8020408,8.19795918 C14.7367294,7.13264773 13.4693951,6.6 12,6.6 C10.5306049,6.6 9.26327063,7.13264773 8.19795918,8.19795918 C7.13264773,9.26327063 6.6,10.5306049 6.6,12 C6.6,13.4693951 7.13264773,14.7367294 8.19795918,15.8020408 C9.26327063,16.8673523 10.5306049,17.4 12,17.4 Z M12,15 C10.3431458,15 9,13.6568542 9,12 C9,10.3431458 10.3431458,9 12,9 C13.6568542,9 15,10.3431458 15,12 C15,13.6568542 13.6568542,15 12,15 Z M12,13 C12.5522847,13 13,12.5522847 13,12 C13,11.4477153 12.5522847,11 12,11 C11.4477153,11 11,11.4477153 11,12 C11,12.5522847 11.4477153,13 12,13 Z" fill="#630001"></path>
                        </g>
                    </g>
                </g>
            </g>
        </g>
    </g>
</svg>