<svg width="18px" height="18px" viewBox="0 0 18 18" version="1.1" xmlns="http://www.w3.org/2000/svg" xmlns:xlink="http://www.w3.org/1999/xlink">
    <!-- Generator: sketchtool 47.1 (45422) - http://www.bohemiancoding.com/sketch -->
    <title>A2016831-A728-4538-AF89-1C84EE53984F</title>
    <desc>Created with sketchtool.</desc>
    <defs></defs>
    <g stroke="none" stroke-width="1" fill="none" fill-rule="evenodd">
        <g transform="translate(-515.000000, -2963.000000)">
            <g transform="translate(-26.000000, 2840.000000)">
                <g transform="translate(98.000000, 80.000000)">
                    <g transform="translate(0.000000, 40.000000)">
                        <g transform="translate(440.000000, 0.000000)">
                            <rect x="0" y="0" width="24" height="24"></rect>
                            <path d="M15.6492238,14.2302045 L21,19.5809806 L19.5809806,21 L14.2302045,15.6492238 C13.0576529,16.5274098 11.6014657,17.047575 10.0237875,17.047575 C6.14465677,17.047575 3,13.9029182 3,10.0237875 C3,6.14465677 6.14465677,3 10.0237875,3 C13.9029182,3 17.047575,6.14465677 17.047575,10.0237875 C17.047575,11.6014657 16.5274098,13.0576529 15.6492238,14.2302045 Z M10.0237875,15.0407786 C12.7945951,15.0407786 15.0407786,12.7945951 15.0407786,10.0237875 C15.0407786,7.25297984 12.7945951,5.00679643 10.0237875,5.00679643 C7.25297984,5.00679643 5.00679643,7.25297984 5.00679643,10.0237875 C5.00679643,12.7945951 7.25297984,15.0407786 10.0237875,15.0407786 Z" fill="#000000"></path>
                        </g>
                    </g>
                </g>
            </g>
        </g>
    </g>
</svg>