<svg width="16px" height="16px" viewBox="0 0 16 16" version="1.1" xmlns="http://www.w3.org/2000/svg" xmlns:xlink="http://www.w3.org/1999/xlink">
    <!-- Generator: sketchtool 47.1 (45422) - http://www.bohemiancoding.com/sketch -->
    <title>A1631B1A-3787-405C-8D44-53E1CD771980</title>
    <desc>Created with sketchtool.</desc>
    <defs></defs>
    <g stroke="none" stroke-width="1" fill="none" fill-rule="evenodd">
        <g transform="translate(-74.000000, -3050.000000)">
            <g transform="translate(-26.000000, 2840.000000)">
                <g transform="translate(98.000000, 168.000000)">
                    <g transform="translate(0.000000, 40.000000)">
                        <g>
                            <rect x="0" y="0" width="20" height="20"></rect>
                            <circle fill="#000000" cx="10" cy="10" r="8"></circle>
                            <path d="M7.20710678,7.79289322 C6.81658249,7.40236893 6.18341751,7.40236893 5.79289322,7.79289322 C5.40236893,8.18341751 5.40236893,8.81658249 5.79289322,9.20710678 L8.79289322,12.2071068 C9.18341751,12.5976311 9.81658249,12.5976311 10.2071068,12.2071068 L13.2071068,9.20710678 C13.5976311,8.81658249 13.5976311,8.18341751 13.2071068,7.79289322 C12.8165825,7.40236893 12.1834175,7.40236893 11.7928932,7.79289322 L9.5,10.0857864 L7.20710678,7.79289322 Z" fill="#FFFFFF" fill-rule="nonzero" transform="translate(9.500000, 10.000000) scale(-1, 1) rotate(-90.000000) translate(-9.500000, -10.000000) "></path>
                        </g>
                    </g>
                </g>
            </g>
        </g>
    </g>
</svg>