<svg width="16px" height="16px" viewBox="0 0 16 16" version="1.1" xmlns="http://www.w3.org/2000/svg" xmlns:xlink="http://www.w3.org/1999/xlink">
    <!-- Generator: sketchtool 47.1 (45422) - http://www.bohemiancoding.com/sketch -->
    <title>6CD14E18-D450-4E68-972F-EBFB8B3DF4CC</title>
    <desc>Created with sketchtool.</desc>
    <defs></defs>
    <g stroke="none" stroke-width="1" fill="none" fill-rule="evenodd">
        <g transform="translate(-110.000000, -3050.000000)">
            <g transform="translate(-26.000000, 2840.000000)">
                <g transform="translate(98.000000, 168.000000)">
                    <g transform="translate(0.000000, 40.000000)">
                        <g transform="translate(36.000000, 0.000000)">
                            <rect x="0" y="0" width="20" height="20"></rect>
                            <circle fill="#000000" cx="10" cy="10" r="8"></circle>
                            <path d="M8.20710678,7.79289322 C7.81658249,7.40236893 7.18341751,7.40236893 6.79289322,7.79289322 C6.40236893,8.18341751 6.40236893,8.81658249 6.79289322,9.20710678 L9.79289322,12.2071068 C10.1834175,12.5976311 10.8165825,12.5976311 11.2071068,12.2071068 L14.2071068,9.20710678 C14.5976311,8.81658249 14.5976311,8.18341751 14.2071068,7.79289322 C13.8165825,7.40236893 13.1834175,7.40236893 12.7928932,7.79289322 L10.5,10.0857864 L8.20710678,7.79289322 Z" fill="#FFFFFF" fill-rule="nonzero" transform="translate(10.500000, 10.000000) scale(-1, 1) rotate(-270.000000) translate(-10.500000, -10.000000) "></path>
                        </g>
                    </g>
                </g>
            </g>
        </g>
    </g>
</svg>