<svg width="16px" height="16px" viewBox="0 0 16 16" version="1.1" xmlns="http://www.w3.org/2000/svg" xmlns:xlink="http://www.w3.org/1999/xlink">
    <!-- Generator: sketchtool 47.1 (45422) - http://www.bohemiancoding.com/sketch -->
    <title>9A3BAEBE-A116-4E49-9A36-B8F30EBE666E</title>
    <desc>Created with sketchtool.</desc>
    <defs></defs>
    <g stroke="none" stroke-width="1" fill="none" fill-rule="evenodd">
        <g transform="translate(-146.000000, -3050.000000)">
            <g transform="translate(-26.000000, 2840.000000)">
                <g transform="translate(98.000000, 168.000000)">
                    <g transform="translate(0.000000, 40.000000)">
                        <g transform="translate(72.000000, 0.000000)">
                            <rect x="0" y="0" width="20" height="20"></rect>
                            <circle fill="#000000" cx="10" cy="10" r="8"></circle>
                            <path d="M7.79289322,7.20710678 C7.40236893,6.81658249 7.40236893,6.18341751 7.79289322,5.79289322 C8.18341751,5.40236893 8.81658249,5.40236893 9.20710678,5.79289322 L12.2071068,8.79289322 C12.5976311,9.18341751 12.5976311,9.81658249 12.2071068,10.2071068 L9.20710678,13.2071068 C8.81658249,13.5976311 8.18341751,13.5976311 7.79289322,13.2071068 C7.40236893,12.8165825 7.40236893,12.1834175 7.79289322,11.7928932 L10.0857864,9.5 L7.79289322,7.20710678 Z" fill="#FFFFFF" fill-rule="nonzero" transform="translate(10.000000, 9.500000) rotate(-90.000000) translate(-10.000000, -9.500000) "></path>
                        </g>
                    </g>
                </g>
            </g>
        </g>
    </g>
</svg>