<svg width="22px" height="22px" viewBox="0 0 22 22" version="1.1" xmlns="http://www.w3.org/2000/svg" xmlns:xlink="http://www.w3.org/1999/xlink">
    <!-- Generator: sketchtool 47.1 (45422) - http://www.bohemiancoding.com/sketch -->
    <title>50D1B64C-4C5D-4967-8485-F2539DE118C1</title>
    <desc>Created with sketchtool.</desc>
    <defs></defs>
    <g stroke="none" stroke-width="1" fill="none" fill-rule="evenodd">
        <g transform="translate(-113.000000, -2961.000000)">
            <g transform="translate(-26.000000, 2840.000000)">
                <g transform="translate(98.000000, 80.000000)">
                    <g transform="translate(0.000000, 40.000000)">
                        <g transform="translate(40.000000, 0.000000)">
                            <rect x="0" y="0" width="24" height="24"></rect>
                            <path d="M12,23 C5.92486775,23 1,18.0751322 1,12 C1,5.92486775 5.92486775,1 12,1 C18.0751322,1 23,5.92486775 23,12 C23,18.0751322 18.0751322,23 12,23 Z M12,21.952381 C17.4965482,21.952381 21.952381,17.4965482 21.952381,12 C21.952381,6.50345178 17.4965482,2.04761905 12,2.04761905 C6.50345178,2.04761905 2.04761905,6.50345178 2.04761905,12 C2.04761905,17.4965482 6.50345178,21.952381 12,21.952381 Z M17.945964,8.27489144 C17.945964,8.31821299 17.933464,8.35534575 17.9147139,8.38628972 C17.6334636,8.83807164 17.2209631,9.246532 16.7959626,9.56216047 L16.7959626,9.76639065 C16.8147126,10.7380312 16.5772123,11.7096718 16.1709619,12.5946692 C15.0459605,15.057809 12.7147077,16.5059867 9.98970449,16.5059867 C8.90220319,16.5059867 7.82720191,16.2460573 6.86470076,15.7509539 C6.68345054,15.658122 6.48345031,15.5591013 6.32095011,15.4415142 C6.26470004,15.3981926 6.2272,15.3424935 6.2272,15.2744168 C6.2272,15.1692073 6.3147001,15.0763754 6.42720024,15.0763754 C6.60845045,15.0763754 6.79595068,15.1073194 6.9834509,15.1073194 C7.80845188,15.1073194 8.62095285,14.8845228 9.3272037,14.4513073 C8.46470267,14.2532659 7.77720185,13.6220089 7.50220152,12.7865218 C7.49595151,12.7617667 7.48970151,12.7432003 7.48970151,12.7184451 C7.48970151,12.6194244 7.57720161,12.5265925 7.68345174,12.5265925 C7.7397018,12.5265925 7.78970186,12.5451589 7.84595193,12.5513477 C7.10845105,12.0995658 6.62720048,11.2950226 6.62720048,10.4285915 C6.62720048,10.2986269 6.73970061,10.205795 6.87095077,10.205795 C6.97720089,10.205795 7.15845111,10.3233821 7.27720125,10.3605148 C6.9022008,9.91492169 6.70220057,9.35174149 6.70220057,8.77618371 C6.70220057,8.38010093 6.82095071,7.8478647 7.04595098,7.51985865 C7.07720101,7.4703483 7.13345108,7.42083795 7.20220116,7.42083795 C7.27720125,7.42083795 7.3209513,7.43940433 7.37095136,7.49510347 C7.59595163,7.74265521 7.80845188,7.98401815 8.05845218,8.20681471 C9.0834534,9.11656734 10.389705,9.68593633 11.7647066,9.80352341 C11.7459566,9.70450271 11.7397066,9.59929323 11.7397066,9.50027253 C11.7397066,8.12017161 12.8772079,7 14.2647096,7 C14.9209604,7 15.5584611,7.25992932 16.0272117,7.70552245 C16.5022122,7.60650175 16.9084627,7.42702674 17.3334632,7.19804139 C17.3647133,7.17947501 17.4022133,7.16709742 17.4334634,7.16709742 C17.5459635,7.16709742 17.6334636,7.25992932 17.6334636,7.36513881 C17.6334636,7.58793537 17.2897132,8.11398281 17.139713,8.28726903 C17.2522131,8.25632506 17.6834637,8.07685005 17.7459637,8.07685005 C17.8584639,8.07685005 17.945964,8.16968195 17.945964,8.27489144 Z" fill="#000000"></path>
                        </g>
                    </g>
                </g>
            </g>
        </g>
    </g>
</svg>