<svg width="22px" height="22px" viewBox="0 0 22 22" version="1.1" xmlns="http://www.w3.org/2000/svg" xmlns:xlink="http://www.w3.org/1999/xlink">
    <!-- Generator: sketchtool 47.1 (45422) - http://www.bohemiancoding.com/sketch -->
    <title>46730292-CF74-4CC6-B860-CFF8FF3747FC</title>
    <desc>Created with sketchtool.</desc>
    <defs></defs>
    <g stroke="none" stroke-width="1" fill="none" fill-rule="evenodd">
        <g transform="translate(-153.000000, -2961.000000)">
            <g transform="translate(-26.000000, 2840.000000)">
                <g transform="translate(98.000000, 80.000000)">
                    <g transform="translate(0.000000, 40.000000)">
                        <g transform="translate(80.000000, 0.000000)">
                            <rect x="0" y="0" width="24" height="24"></rect>
                            <path d="M12,23 C5.92486775,23 1,18.0751322 1,12 C1,5.92486775 5.92486775,1 12,1 C18.0751322,1 23,5.92486775 23,12 C23,18.0751322 18.0751322,23 12,23 Z M12,21.952381 C17.4965482,21.952381 21.952381,17.4965482 21.952381,12 C21.952381,6.50345178 17.4965482,2.04761905 12,2.04761905 C6.50345178,2.04761905 2.04761905,6.50345178 2.04761905,12 C2.04761905,17.4965482 6.50345178,21.952381 12,21.952381 Z M12.9719863,18 L8,18 L8,6 L13.4323742,6 C15.0059577,6 16.4578527,7.00164786 16.4578527,8.76841171 C16.4578527,10.1325897 15.696286,11.0668019 14.7248067,11.3570795 L14.7248067,11.3923184 C16.1652934,11.689948 17.1940677,12.4723032 17.1940677,14.3597414 C17.1940677,16.1064774 16.0045633,18 12.9719863,18 Z M13.6235264,13.0242109 C13.2333629,12.7970592 12.6910889,12.7970592 12.2504753,12.7970592 L10.8036507,12.7970592 L10.8036507,15.7784257 L12.1315756,15.7784257 C12.6231462,15.7784257 13.2500951,15.8136646 13.6739764,15.516035 C14.0631259,15.2541513 14.2834326,14.7400177 14.2834326,14.2504753 C14.2834326,13.7956648 14.0126759,13.2516162 13.6235264,13.0242109 Z M13.0777031,10.4781341 C13.3996704,10.2329826 13.5685131,9.79591837 13.5685131,9.39333249 C13.5685131,8.9560147 13.3654456,8.53618963 12.9930283,8.3090379 C12.6033718,8.08188617 11.891241,8.1343643 11.4338953,8.1343643 L10.8036507,8.1343643 L10.8036507,10.758271 L11.6374699,10.758271 C12.1118012,10.7580175 12.6713145,10.7930029 13.0777031,10.4781341 Z" fill="#000000"></path>
                        </g>
                    </g>
                </g>
            </g>
        </g>
    </g>
</svg>